<?xml version="1.0" standalone="no"?>
<!DOCTYPE svg PUBLIC "-//W3C//DTD SVG 20010904//EN"
 "http://www.w3.org/TR/2001/REC-SVG-20010904/DTD/svg10.dtd">
<svg version="1.0" xmlns="http://www.w3.org/2000/svg"
 width="1262.000000pt" height="1280.000000pt" viewBox="0 0 1262.000000 1280.000000"
 preserveAspectRatio="xMidYMid meet">
<g transform="translate(0.000000,1280.000000) scale(0.100000,-0.100000)"
fill="#000000" stroke="none">
<path d="M8590 12796 c-3 -2 -48 -12 -100 -20 -348 -56 -653 -225 -955 -530
-341 -343 -588 -782 -740 -1316 -82 -287 -124 -564 -132 -876 -11 -413 50
-794 182 -1130 373 -950 1223 -1303 2029 -842 290 166 593 472 805 813 455
732 620 1739 416 2545 -187 738 -631 1226 -1215 1335 -94 18 -280 31 -290 21z"/>
<path d="M4195 12519 c-110 -14 -241 -55 -350 -108 -305 -148 -572 -445 -743
-827 -269 -602 -311 -1390 -112 -2117 102 -370 292 -762 494 -1017 378 -477
854 -713 1312 -649 688 95 1211 829 1305 1832 15 164 6 590 -16 747 -155 1105
-776 1969 -1528 2124 -99 20 -272 28 -362 15z"/>
<path d="M1060 9360 c-228 -32 -474 -169 -632 -353 -226 -262 -361 -621 -408
-1077 -20 -194 -23 -291 -11 -393 6 -56 16 -147 22 -202 61 -596 307 -1224
666 -1704 105 -139 363 -401 481 -486 314 -228 600 -327 902 -312 593 30 1031
571 1121 1387 16 152 14 479 -6 645 -142 1219 -911 2299 -1767 2480 -90 20
-281 27 -368 15z"/>
<path d="M11262 8726 c-485 -92 -965 -485 -1307 -1070 -439 -750 -571 -1704
-333 -2395 97 -281 251 -509 442 -653 488 -368 1143 -231 1705 358 385 403
684 1014 791 1614 57 321 69 549 41 784 -36 307 -89 510 -185 709 -158 328
-414 558 -711 638 -103 27 -334 35 -443 15z"/>
<path d="M6095 6004 c-499 -34 -1068 -162 -1337 -300 -162 -84 -271 -176 -608
-509 -173 -171 -352 -339 -397 -373 -161 -122 -418 -286 -884 -565 -606 -362
-925 -575 -1073 -716 -214 -203 -342 -679 -307 -1143 26 -343 125 -660 274
-883 221 -329 631 -663 1067 -868 661 -310 1444 -475 2650 -557 212 -14 866
-47 1200 -60 151 -6 353 -15 448 -20 221 -13 535 -13 716 0 77 5 224 14 326
20 980 57 1732 282 2260 676 124 93 326 287 416 399 247 307 275 798 79 1365
-124 359 -315 616 -677 912 -57 47 -239 187 -404 311 -600 450 -675 526 -1093
1121 -220 312 -311 426 -456 571 -183 183 -325 275 -572 374 -282 112 -595
188 -928 226 -135 15 -577 27 -700 19z"/>
</g>
</svg>
